<svg xmlns="http://www.w3.org/2000/svg" viewBox="0 0 1210 400" font-family="ui-sans-serif, -apple-system, 'Segoe UI', Roboto, Helvetica, Arial, sans-serif">
  <defs>
    <marker id="arrow" viewBox="0 0 10 10" refX="9" refY="5" markerWidth="7" markerHeight="7" orient="auto-start-reverse">
      <path d="M0,0 L10,5 L0,10 z" fill="#3B82F6"/>
    </marker>
  </defs>

  <rect width="1210" height="400" fill="#0A0A0A"/>

  <!-- connectors -->
  <g fill="none" stroke="#3B82F6" stroke-width="1.75" opacity="0.85" marker-end="url(#arrow)">
    <path d="M302,135 L352,210"/>
    <path d="M302,295 L352,210"/>
    <path d="M562,210 L612,160"/>
    <path d="M842,160 L892,210"/>
    <path d="M562,210 Q727,340 892,210"/>
  </g>

  <!-- Raw sources -->
  <g>
    <rect x="40" y="60" width="262" height="150" rx="10" fill="#141414" stroke="#64748B" stroke-width="1.5"/>
    <rect x="40" y="60" width="4" height="150" rx="2" fill="#64748B"/>
    <text x="58" y="87" font-size="15" font-weight="700" fill="#64748B">Raw sources</text>
    <text x="58" y="126" font-size="12.5" font-family="ui-monospace, Consolas, Menlo, monospace" fill="#999999">RAW_TRANSACTIONS_XTB</text>
    <text x="58" y="146" font-size="12.5" font-family="ui-monospace, Consolas, Menlo, monospace" fill="#999999">RAW_ASSET_DETAILS</text>
    <text x="58" y="166" font-size="12.5" font-family="ui-monospace, Consolas, Menlo, monospace" fill="#999999">RAW_EXCHANGE_RATES</text>
    <text x="58" y="186" font-size="12.5" font-family="ui-monospace, Consolas, Menlo, monospace" fill="#999999">RAW_ASSET_PRICES</text>
  </g>

  <!-- Seeds -->
  <g>
    <rect x="40" y="230" width="262" height="130" rx="10" fill="#141414" stroke="#2DD4BF" stroke-width="1.5"/>
    <rect x="40" y="230" width="4" height="130" rx="2" fill="#2DD4BF"/>
    <text x="58" y="257" font-size="15" font-weight="700" fill="#2DD4BF">Seeds</text>
    <text x="58" y="296" font-size="12.5" font-family="ui-monospace, Consolas, Menlo, monospace" fill="#999999">raw_asset_seed</text>
    <text x="58" y="316" font-size="12.5" font-family="ui-monospace, Consolas, Menlo, monospace" fill="#999999">raw_transaction_type_seed</text>
    <text x="58" y="336" font-size="12.5" font-family="ui-monospace, Consolas, Menlo, monospace" fill="#999999">map_transaction_type_source_seed</text>
  </g>

  <!-- Staging -->
  <g>
    <rect x="352" y="125" width="210" height="170" rx="10" fill="#141414" stroke="#6366F1" stroke-width="1.5"/>
    <rect x="352" y="125" width="4" height="170" rx="2" fill="#6366F1"/>
    <text x="370" y="152" font-size="15" font-weight="700" fill="#6366F1">Staging</text>
    <text x="370" y="191" font-size="12.5" font-family="ui-monospace, Consolas, Menlo, monospace" fill="#999999">stg_asset</text>
    <text x="370" y="211" font-size="12.5" font-family="ui-monospace, Consolas, Menlo, monospace" fill="#999999">stg_transactions_xtb</text>
    <text x="370" y="231" font-size="12.5" font-family="ui-monospace, Consolas, Menlo, monospace" fill="#999999">stg_exchange_rates</text>
    <text x="370" y="251" font-size="12.5" font-family="ui-monospace, Consolas, Menlo, monospace" fill="#999999">stg_transaction_type</text>
    <text x="370" y="271" font-size="12.5" font-family="ui-monospace, Consolas, Menlo, monospace" fill="#999999">stg_asset_prices</text>
  </g>

  <!-- Intermediate -->
  <g>
    <rect x="612" y="105" width="230" height="110" rx="10" fill="#141414" stroke="#8B5CF6" stroke-width="1.5"/>
    <rect x="612" y="105" width="4" height="110" rx="2" fill="#8B5CF6"/>
    <text x="630" y="132" font-size="15" font-weight="700" fill="#8B5CF6">Intermediate</text>
    <text x="630" y="171" font-size="12.5" font-family="ui-monospace, Consolas, Menlo, monospace" fill="#999999">int_exchange_rates_filled</text>
    <text x="630" y="191" font-size="12.5" font-family="ui-monospace, Consolas, Menlo, monospace" fill="#999999">int_asset_prices_filled</text>
  </g>

  <!-- Marts -->
  <g>
    <rect x="892" y="95" width="270" height="230" rx="10" fill="#141414" stroke="#3B82F6" stroke-width="1.5"/>
    <rect x="892" y="95" width="4" height="230" rx="2" fill="#3B82F6"/>
    <text x="910" y="122" font-size="15" font-weight="700" fill="#3B82F6">Marts</text>
    <text x="910" y="161" font-size="12.5" font-family="ui-monospace, Consolas, Menlo, monospace" fill="#999999">dim_asset</text>
    <text x="910" y="181" font-size="12.5" font-family="ui-monospace, Consolas, Menlo, monospace" fill="#999999">dim_currency</text>
    <text x="910" y="201" font-size="12.5" font-family="ui-monospace, Consolas, Menlo, monospace" fill="#999999">dim_transaction_type</text>
    <text x="910" y="221" font-size="12.5" font-family="ui-monospace, Consolas, Menlo, monospace" fill="#999999">dim_date</text>
    <text x="910" y="241" font-size="12.5" font-family="ui-monospace, Consolas, Menlo, monospace" fill="#999999">fct_transactions</text>
    <text x="910" y="261" font-size="12.5" font-family="ui-monospace, Consolas, Menlo, monospace" fill="#999999">fct_asset_prices</text>
    <text x="910" y="281" font-size="12.5" font-family="ui-monospace, Consolas, Menlo, monospace" fill="#999999">fct_exchange_rates</text>
    <text x="910" y="301" font-size="12.5" font-family="ui-monospace, Consolas, Menlo, monospace" fill="#999999">fct_portfolio_snapshots_daily</text>
  </g>
</svg>
